HIERARCHY
ROOT Hips
{
	OFFSET 0.00000 0.00000 0.00000
	CHANNELS 6 Xposition Yposition Zposition Zrotation Yrotation Xrotation 
	JOINT LHipJoint
	{
		OFFSET 0 0 0
		CHANNELS 3 Zrotation Yrotation Xrotation
		JOINT LeftHip
		{
			OFFSET 1.40252 -1.71424 0.59123
			CHANNELS 3 Zrotation Yrotation Xrotation
			JOINT LeftKnee
			{
				OFFSET 2.50071 -6.87065 0.00000
				CHANNELS 3 Zrotation Yrotation Xrotation
				JOINT LeftAnkle
				{
					OFFSET 2.50834 -6.89162 0.00000
					CHANNELS 3 Zrotation Yrotation Xrotation
					JOINT LeftToe
					{
						OFFSET 0.21528 -0.59149 1.64448
						CHANNELS 3 Zrotation Yrotation Xrotation
						End Site
						{
							OFFSET 0.00000 -0.00000 0.87921
						}
					}
				}
			}
		}
	}
	JOINT RHipJoint
	{
		OFFSET 0 0 0
		CHANNELS 3 Zrotation Yrotation Xrotation
		JOINT RightHip
		{
			OFFSET -1.53651 -1.71424 0.59123
			CHANNELS 3 Zrotation Yrotation Xrotation
			JOINT RightKnee
			{
				OFFSET -2.45783 -6.75285 0.00000
				CHANNELS 3 Zrotation Yrotation Xrotation
				JOINT RightAnkle
				{
					OFFSET -2.51921 -6.92147 0.00000
					CHANNELS 3 Zrotation Yrotation Xrotation
					JOINT RightToe
					{
						OFFSET -0.21777 -0.59831 1.59676
						CHANNELS 3 Zrotation Yrotation Xrotation
						End Site
						{
							OFFSET -0.00000 -0.00000 0.85779
						}
					}
				}
			}
		}
	}
	JOINT lowerback
	{
		OFFSET 0 0 0
		CHANNELS 3 Zrotation Yrotation Xrotation
		JOINT Chest
		{
			OFFSET 0.02212 2.07622 0.03776
			CHANNELS 3 Zrotation Yrotation Xrotation
			JOINT Chest2
			{
				OFFSET -0.00949 2.08009 -0.00123
				CHANNELS 3 Zrotation Yrotation Xrotation
				JOINT lowerneck
				{
					OFFSET 0 0 0
					CHANNELS 3 Zrotation Yrotation Xrotation
					JOINT Neck
					{
						OFFSET 0.00288 1.67184 0.11155
						CHANNELS 3 Zrotation Yrotation Xrotation
						JOINT Head
						{
							OFFSET -0.02412 1.66997 -0.22040
							CHANNELS 3 Zrotation Yrotation Xrotation
							End Site
							{
								OFFSET -0.01026 1.69043 -0.08683
							}
						}
					}
				}
				JOINT LeftCollar
				{
					OFFSET 0 0 0
					CHANNELS 3 Zrotation Yrotation Xrotation
					JOINT LeftShoulder
					{
						OFFSET 3.97941 0.74048 0.81462
CHANNELS 3 Zrotation Xrotation Yrotation
						JOINT LeftElbow
						{
OFFSET 0 -5.018340 -0.000000
CHANNELS 3 Zrotation Xrotation Yrotation
							JOINT LeftWrist
							{
OFFSET 0 -3.486900 0.000000
CHANNELS 3 Zrotation Xrotation Yrotation
								JOINT lhand
								{
									OFFSET 0 0 0
CHANNELS 3 Zrotation Xrotation Yrotation
									JOINT LFingers
									{
OFFSET 0 -0.767990 0.000000
CHANNELS 3 Zrotation Xrotation Yrotation
										End Site
										{
OFFSET 0 -0.619170 0.000000
										}
									}
								}
								JOINT LThumb
								{
OFFSET 0 0.000000 0.000000
CHANNELS 3 Zrotation Xrotation Yrotation
									End Site
									{
OFFSET 0 -0.628630 0.628630
									}
								}
							}
						}
					}
				}
				JOINT RightCollar
				{
					OFFSET 0 0 0
					CHANNELS 3 Zrotation Yrotation Xrotation
					JOINT RightShoulder
					{
						OFFSET -3.88702 1.02123 0.44091
CHANNELS 3 Zrotation Xrotation Yrotation
						JOINT RightElbow
						{
OFFSET 0 -4.701640 0.000000
CHANNELS 3 Zrotation Xrotation Yrotation
							JOINT RightWrist
							{
OFFSET 0 -3.499110 0.000000
CHANNELS 3 Zrotation Xrotation Yrotation
								JOINT rhand
								{
									OFFSET 0 0 0
CHANNELS 3 Zrotation Xrotation Yrotation
									JOINT RFingers
									{
OFFSET 0 -0.739330 0.000000
CHANNELS 3 Zrotation Xrotation Yrotation
										End Site
										{
OFFSET 0 -0.596070 0.000000
										}
									}
								}
								JOINT RThumb
								{
OFFSET 0 0.000000 0.000000
CHANNELS 3 Zrotation Xrotation Yrotation
									End Site
									{
OFFSET 0 -0.605170 0.605170
									}
								}
							}
						}
					}
				}
			}
		}
	}
}
MOTION
Frames: 8
Frame Time: .0083333
-14.0619 17.5973 -0.9662 16.7318 78.9715 27.2064 0.0000 0.0000 0.0000 -24.5998 4.1882 -15.6531 0.1832 2.7571 7.6033 0.3156 2.4107 -11.7755 0.0116 -0.6947 -1.9092 0.0000 0.0000 0.0000 7.1265 6.4246 -23.7009 -4.6195 -12.9421 39.1521 -0.6521 -3.9993 -17.2292 -0.0344 1.1963 -3.2892 -4.3797 1.3436 -9.1276 -1.6183 2.3163 -2.5009 1.0394 1.1755 2.4129 -7.6580 -4.3691 -4.1304 5.1827 -5.7492 18.9951 2.5427 -2.7673 6.8373 0.0000 -0.0000 0.0000 7.2141 4.8484 -73.6039 118.2750 -56.7523 84.2199 27.5459 -1.9127 -43.1947 0.0 0.0 0.0 -7.1250 0.0 0.0 -19.5998 75.9219 14.3581 0.0000 -0.0000 0.0000 0.779 15.9807 56.2764 -124.9889 -54.8269 -89.775 -25.1194 -27.5031 -9.9889 0.0 0.0 0.0 7.1250 0.0 -0.0 1.3375 18.9735 0.8302
-14.0820 17.5897 -0.9205 17.6917 79.0402 28.2900 0.0000 0.0000 0.0000 -24.5950 3.9779 -15.8368 0.1853 2.7728 7.6468 0.3104 2.4344 -11.7055 0.0142 -0.7698 -2.1158 0.0000 0.0000 0.0000 6.9666 6.8136 -22.8351 -4.5220 -12.8244 38.7145 -0.6399 -4.2342 -17.2409 -0.0091 0.6161 -1.6929 -4.1676 1.3961 -9.7852 -1.8413 2.4188 -2.4476 0.7241 1.2200 2.8460 -6.7226 -4.6662 -5.9196 3.9976 -5.9427 21.5641 1.9526 -2.8418 7.9500 -0.0000 0.0000 0.0000 7.4385 4.9711 -73.3323 118.5059 -56.6951 84.4129 27.5662 -2.0316 -43.2708 0.0 0.0 0.0 -7.1250 0.0 0.0 -19.7406 75.9962 14.4934 -0.0000 0.0000 0.0000 1.1494 15.8234 56.7181 -123.9512 -55.1617 -88.9249 -19.6617 -23.8143 -8.909 0.0 0.0 0.0 7.1250 0.0 -0.0 5.2086 20.5469 3.0617
-14.1079 17.5915 -0.8700 18.9216 79.1601 29.3345 0.0000 0.0000 0.0000 -24.5901 4.1042 -15.8163 0.1888 2.7987 7.7189 0.3185 2.1896 -11.6917 0.0128 -0.7317 -2.0108 0.0000 0.0000 0.0000 6.9312 7.1244 -21.5506 -4.3764 -12.6451 38.0539 -0.6427 -3.8484 -17.0290 -0.0189 0.8887 -2.4427 -4.0369 1.4440 -9.9992 -2.0475 2.4946 -2.3411 0.4556 1.2535 3.0870 -5.8054 -4.9436 -7.5994 2.7513 -6.0921 23.9584 1.3305 -2.9093 9.0140 0.0000 -0.0000 0.0000 7.6123 5.005 -73.108 118.5589 -56.6819 84.4572 27.9517 -1.8551 -43.2694 0.0 0.0 0.0 -7.1250 0.0 0.0 -19.1584 76.1424 14.1175 0.0000 -0.0000 0.0000 1.423 15.4623 57.2356 -122.7651 -55.5269 -87.9492 -14.1344 -20.5008 -8.0515 0.0 0.0 0.0 7.1250 0.0 -0.0 9.2083 21.7193 5.2132
-14.1376 17.5791 -0.8196 20.2528 79.2561 29.9529 0.0000 0.0000 0.0000 -24.5319 4.2604 -15.1267 0.1853 2.7723 7.6456 0.3222 2.1938 -11.7548 0.0043 -0.4211 -1.1571 0.0000 0.0000 0.0000 7.0461 7.4013 -19.5731 -4.0909 -12.2804 36.7313 -0.6114 -4.1538 -16.8655 -0.1053 2.0929 -5.7625 -3.7793 1.5379 -9.7438 -2.3300 2.5972 -2.0214 0.0291 1.2979 3.2998 -3.8229 -4.4631 -11.2615 1.2489 -5.2279 27.9172 0.4850 -2.4016 11.0017 0.0000 0.0000 0.0000 7.9081 4.8673 -72.9332 118.6748 -56.6528 84.5541 28.5594 -1.6237 -43.2133 0.0 0.0 0.0 -7.1250 0.0 0.0 -18.1022 76.3258 13.3975 0.0000 0.0000 0.0000 1.6688 15.139 58.9995 -120.1800 -56.2618 -85.8086 -6.5603 -11.6228 -7.6582 0.0 0.0 0.0 7.1250 0.0 -0.0 14.6730 22.3383 8.2623
-14.1610 17.5691 -0.7696 21.2212 79.2242 30.4020 0.0000 0.0000 0.0000 -24.4724 4.2089 -14.5005 0.1793 2.7278 7.5219 0.3104 2.4927 -11.7407 0.0036 -0.3901 -1.0718 0.0000 0.0000 0.0000 7.1791 7.9149 -17.6236 -3.7739 -11.8533 35.2151 -0.6842 -4.0378 -17.6080 -0.1607 2.5825 -7.1185 -3.4893 1.7219 -9.8369 -2.5957 2.8379 -1.7203 -0.3698 1.4115 3.6866 -0.4945 -1.9622 -11.4361 0.4819 -2.2882 25.6646 0.0154 -0.8550 10.0490 -0.0000 0.0000 0.0000 8.1918 4.7858 -72.8495 118.9127 -56.5928 84.7527 28.7689 -1.5942 -43.157 0.0 0.0 0.0 -7.1250 0.0 0.0 -17.6507 76.3563 13.0703 -0.0000 0.0000 0.0000 1.7405 15.1731 61.659 -115.7325 -57.3438 -82.0863 -24.811 1.9834 -6.1932 0.0 0.0 0.0 7.1250 0.0 -0.0 1.4176 23.1629 0.7459
-14.1777 17.5619 -0.7197 21.9078 79.1009 30.7563 0.0000 0.0000 0.0000 -24.4286 4.1587 -14.0356 0.1734 2.6824 7.3958 0.2919 2.8127 -11.6365 0.0116 -0.6962 -1.9131 0.0000 0.0000 0.0000 7.2494 8.0365 -15.9955 -3.3785 -11.2840 33.2437 -0.7998 -3.6438 -18.5958 -0.2849 3.4329 -9.4865 -3.4048 1.9738 -9.8705 -2.7042 3.1719 -1.7119 -0.4860 1.5788 3.7194 -0.2671 -2.1430 -11.2613 0.1450 -2.4991 25.6592 -0.1642 -0.9665 10.0057 0.0000 0.0000 0.0000 8.2039 5.0848 -72.8789 119.0347 -56.5617 84.8545 28.0991 -1.6428 -43.6393 0.0 0.0 0.0 -7.1250 0.0 0.0 -19.7924 76.5224 14.7475 0.0000 0.0000 0.0000 1.9542 15.1921 61.3077 -115.7119 -57.3483 -82.069 -24.5166 1.8797 -6.4498 0.0 0.0 0.0 7.1250 0.0 -0.0 1.6410 22.8978 0.8735
-14.2007 17.5547 -0.6630 22.5484 79.0523 31.0487 0.0000 0.0000 0.0000 -24.3138 4.2441 -13.6632 0.1708 2.6621 7.3394 0.2824 2.9193 -11.5473 0.0242 -1.0038 -2.7592 0.0000 0.0000 0.0000 7.4309 8.0132 -14.3325 -2.9392 -10.5960 30.9293 -0.8657 -3.8000 -19.3476 -0.4634 4.3665 -12.1102 -3.3243 2.1642 -9.8103 -2.7960 3.4185 -1.6971 -0.5972 1.7029 3.7086 0.7411 -1.7615 -8.6410 -2.5000 -1.6547 21.4935 -1.0875 -0.8162 8.0287 0.0000 -0.0000 0.0000 8.2269 5.2889 -72.7677 119.1367 -56.5356 84.9396 27.4806 -1.7134 -44.2541 0.0 0.0 0.0 -7.1250 0.0 0.0 -22.2381 76.8084 16.7332 0.0000 -0.0000 0.0000 2.1105 15.1703 61.1937 -115.7360 -57.3431 -82.0892 -24.4623 1.9073 -6.538 0.0 0.0 0.0 7.1250 0.0 -0.0 1.6831 22.8043 0.8996
-14.2353 17.5456 -0.5991 23.3541 79.1361 31.6080 0.0000 0.0000 0.0000 -24.1333 4.1458 -13.4225 0.1707 2.6614 7.3373 0.2740 3.0063 -11.4635 0.0349 -1.2067 -3.3177 0.0000 0.0000 0.0000 7.7089 7.7883 -12.9271 -2.5688 -9.9619 28.8536 -0.9378 -4.0339 -20.1770 -0.5804 4.8785 -13.5623 -3.2958 2.2564 -9.7362 -2.8455 3.5370 -1.6952 -0.6527 1.7631 3.6731 0.6921 -1.7256 -8.7274 -2.4074 -1.6045 21.7069 -1.0467 -0.7843 8.1184 -0.0000 0.0000 0.0000 8.1882 5.5095 -72.6252 119.3042 -56.4925 85.0794 28.0094 -1.6307 -44.1628 0.0 0.0 0.0 -7.1250 0.0 0.0 -21.2160 76.9384 16.0072 -0.0000 0.0000 0.0000 2.1244 15.028 61.3419 -115.7394 -57.3423 -82.0921 -24.8886 2.0086 -6.3831 0.0 0.0 0.0 7.1250 0.0 -0.0 1.3654 22.95 0.7251
